<svg xmlns="http://www.w3.org/2000/svg" xmlns:xlink="http://www.w3.org/1999/xlink" viewBox="0 0 279.25 170.87"><defs><style>.cls-1{stroke:#fff;stroke-miterlimit:10;stroke-width:3px;fill:url(#Adsız_degrade_64);}</style><linearGradient id="Adsız_degrade_64" x1="137.78" y1="-58.57" x2="140.76" y2="271.2" gradientUnits="userSpaceOnUse"><stop offset="0.29" stop-color="#e6332a"/><stop offset="0.33" stop-color="#ca3138"/><stop offset="0.47" stop-color="#782c60"/><stop offset="0.56" stop-color="#452879"/><stop offset="0.61" stop-color="#312783"/></linearGradient></defs><g id="katman_2" data-name="katman 2"><g id="katman_1-2" data-name="katman 1"><g id="Logo"><path class="cls-1" d="M141.73,142.78C94.24,167,19.48,181.3,4.27,156.21c-8.9-14.7,5-38.05,22.08-66.88,3.27-5.55,6.46-11.86,11.91-19.56C47.8,56.28,62.82,35,90,22.13c34.2-16.26,67.71-9.82,80.84-6.36a122.15,122.15,0,0,1,45.85,23.4c11.17,9.18,18.2,19.31,32.26,39.57,17.48,25.19,21.7,37.48,22.92,41.24,4.67,14.35,9.22,28.32,2.55,37.9-2.24,3.2-9.76,11.8-45.56,9.19-13.8-1-30.57-2.36-50-8.26-14.24-4.32-34.17-14.61-37.1-16s-5.43-2.66-5.84-2.87c-13.16-6.64-72.58-43-77.39-95.94-2.29-25.23,9-41.35,6.24-42.42C60.63,0,30.49,33,37.4,71.92c6.36,35.9,38.81,52.91,50.76,59.08,27.05,14,52.39,12.2,61.27,11.46,3.23-.26,45-4.31,75.15-35.85,11.07-11.56,15.06-21,16.08-23.59,7.85-19.6,3.69-37.25,2.32-42.73C237.13,16.92,220.69.83,218.92,1.83c-1,.58,3.1,6.68,5.1,18.39a75.39,75.39,0,0,1,0,24.25c-2.57,18.06-10.32,31-14.15,37.34-16.54,27.51-39.72,43.13-54.78,52.94A138.44,138.44,0,0,1,141.73,142.78Z"/></g></g></g></svg>